<svg width="16" height="16" viewBox="0 0 16 16" fill="none" xmlns="http://www.w3.org/2000/svg">
<g clip-path="url(#clip0_853_15736)">
<path d="M6.81641 10.8164L3.03027 15.2305C2.98526 15.2829 2.91972 15.3135 2.85059 15.3135H0.374023C0.27289 15.3134 0.218443 15.195 0.28418 15.1182L5.48047 9.05859L6.81641 10.8164Z" fill="#5C7080"/>
<path d="M15.2012 0.742188C15.3024 0.742188 15.3569 0.860661 15.291 0.9375L10.251 6.81348L8.91602 5.05566L12.5449 0.824219C12.5899 0.771894 12.6556 0.742265 12.7246 0.742188H15.2012Z" fill="#5C7080"/>
<path d="M0.216828 1.02743C0.127891 0.910429 0.211331 0.742188 0.358295 0.742188H4.62164C4.7327 0.742188 4.83737 0.794101 4.90458 0.882512L15.6577 15.0284C15.7467 15.1454 15.6632 15.3136 15.5163 15.3136H11.2529C11.1419 15.3136 11.0372 15.2617 10.97 15.1733L0.216828 1.02743Z" fill="#5C7080"/>
</g>
<defs>
<clipPath id="clip0_853_15736">
<rect width="16" height="16" fill="white"/>
</clipPath>
</defs>
</svg>
